<svg width="201" height="241" viewBox="0 0 201 241" fill="none" xmlns="http://www.w3.org/2000/svg">
<path opacity="0.3" d="M140.53 50.06C135.062 50.0547 129.819 47.8809 125.952 44.0153C122.084 40.1497 119.908 34.908 119.9 29.44V0.809998H27.77C20.633 0.809998 13.7883 3.64514 8.7417 8.69174C3.6951 13.7383 0.860107 20.583 0.860107 27.72V189.94C0.860107 197.077 3.6951 203.922 8.7417 208.968C13.7883 214.015 20.633 216.85 27.77 216.85H138.37C145.507 216.85 152.352 214.015 157.398 208.968C162.445 203.922 165.28 197.077 165.28 189.94V50.06H140.53Z" fill="#0072FF"/>
<path d="M165.28 50.06H140.53C135.062 50.0547 129.819 47.8809 125.952 44.0153C122.084 40.1497 119.908 34.908 119.9 29.44V0.809998L165.28 50.06Z" fill="#0072FF"/>
<path d="M131.45 84.54H28.21C27.2502 84.4904 26.3461 84.0742 25.6843 83.3773C25.0225 82.6804 24.6536 81.7561 24.6536 80.795C24.6536 79.834 25.0225 78.9096 25.6843 78.2127C26.3461 77.5158 27.2502 77.0996 28.21 77.05H131.45C131.958 77.0238 132.466 77.1011 132.943 77.2775C133.421 77.4538 133.857 77.7254 134.226 78.0758C134.595 78.4261 134.889 78.8479 135.089 79.3153C135.29 79.7828 135.394 80.2863 135.394 80.795C135.394 81.3038 135.29 81.8072 135.089 82.2747C134.889 82.7422 134.595 83.1639 134.226 83.5142C133.857 83.8646 133.421 84.1362 132.943 84.3125C132.466 84.4889 131.958 84.5663 131.45 84.54Z" fill="#0072FF"/>
<path d="M131.45 106.91H28.21C27.2502 106.86 26.3461 106.444 25.6843 105.747C25.0225 105.05 24.6536 104.126 24.6536 103.165C24.6536 102.204 25.0225 101.28 25.6843 100.583C26.3461 99.8858 27.2502 99.4696 28.21 99.42H131.45C131.958 99.3937 132.466 99.4711 132.943 99.6475C133.421 99.8238 133.857 100.095 134.226 100.446C134.595 100.796 134.889 101.218 135.089 101.685C135.29 102.153 135.394 102.656 135.394 103.165C135.394 103.674 135.29 104.177 135.089 104.645C134.889 105.112 134.595 105.534 134.226 105.884C133.857 106.235 133.421 106.506 132.943 106.683C132.466 106.859 131.958 106.936 131.45 106.91Z" fill="#0072FF"/>
<path d="M131.45 129.28H28.21C27.2502 129.23 26.3461 128.814 25.6843 128.117C25.0225 127.42 24.6536 126.496 24.6536 125.535C24.6536 124.574 25.0225 123.65 25.6843 122.953C26.3461 122.256 27.2502 121.84 28.21 121.79H131.45C131.958 121.764 132.466 121.841 132.943 122.018C133.421 122.194 133.857 122.465 134.226 122.816C134.595 123.166 134.889 123.588 135.089 124.055C135.29 124.523 135.394 125.026 135.394 125.535C135.394 126.044 135.29 126.547 135.089 127.015C134.889 127.482 134.595 127.904 134.226 128.254C133.857 128.605 133.421 128.876 132.943 129.053C132.466 129.229 131.958 129.306 131.45 129.28Z" fill="#0072FF"/>
<path d="M90.73 151.64H28.21C27.2502 151.59 26.3461 151.174 25.6843 150.477C25.0225 149.78 24.6536 148.856 24.6536 147.895C24.6536 146.934 25.0225 146.01 25.6843 145.313C26.3461 144.616 27.2502 144.2 28.21 144.15H90.73C91.2381 144.124 91.7462 144.201 92.2234 144.377C92.7006 144.554 93.1369 144.825 93.5059 145.176C93.8748 145.526 94.1686 145.948 94.3694 146.415C94.5701 146.883 94.6736 147.386 94.6736 147.895C94.6736 148.404 94.5701 148.907 94.3694 149.375C94.1686 149.842 93.8748 150.264 93.5059 150.614C93.1369 150.965 92.7006 151.236 92.2234 151.413C91.7462 151.589 91.2381 151.666 90.73 151.64Z" fill="#0072FF"/>
<path d="M184.8 171.42H59.76C50.8903 171.42 43.7 178.61 43.7 187.48V224.76C43.7 233.63 50.8903 240.82 59.76 240.82H184.8C193.67 240.82 200.86 233.63 200.86 224.76V187.48C200.86 178.61 193.67 171.42 184.8 171.42Z" fill="#0072FF"/>
<path d="M62.03 214.19V221.46H54.5V214.19H62.03Z" fill="white"/>
<path d="M91.03 214.21C89.7716 216.482 87.8776 218.338 85.5801 219.55C82.996 220.873 80.1222 221.529 77.22 221.46H65.8701V191.39H77.22C80.1244 191.317 83.0023 191.959 85.6001 193.26C87.8905 194.447 89.7794 196.284 91.03 198.54C92.2726 200.965 92.9207 203.65 92.9207 206.375C92.9207 209.1 92.2726 211.785 91.03 214.21ZM83.2 212.7C84.7227 210.941 85.5608 208.692 85.5608 206.365C85.5608 204.038 84.7227 201.789 83.2 200.03C81.3817 198.433 79.0055 197.621 76.5901 197.77H73.1401V214.95H76.5901C78.9867 215.086 81.3412 214.278 83.1501 212.7H83.2Z" fill="white"/>
<path d="M119.03 192.9C121.32 194.197 123.212 196.095 124.5 198.39C125.819 200.829 126.51 203.558 126.51 206.33C126.51 209.103 125.819 211.831 124.5 214.27C123.205 216.571 121.307 218.476 119.01 219.78C116.66 221.078 114.02 221.759 111.335 221.759C108.65 221.759 106.01 221.078 103.66 219.78C101.363 218.476 99.4652 216.571 98.1699 214.27C96.8439 211.834 96.1494 209.104 96.1494 206.33C96.1494 203.556 96.8439 200.826 98.1699 198.39C99.4713 196.098 101.368 194.201 103.66 192.9C106.017 191.601 108.664 190.92 111.355 190.92C114.046 190.92 116.693 191.601 119.05 192.9H119.03ZM105.64 200C104.271 201.819 103.53 204.033 103.53 206.31C103.53 208.587 104.271 210.801 105.64 212.62C107.148 214.113 109.183 214.951 111.305 214.951C113.427 214.951 115.463 214.113 116.97 212.62C118.345 210.809 119.089 208.598 119.089 206.325C119.089 204.052 118.345 201.841 116.97 200.03C115.457 198.54 113.418 197.706 111.295 197.706C109.172 197.706 107.133 198.54 105.62 200.03L105.64 200Z" fill="white"/>
<path d="M153.8 194.11C156.333 196.176 158.057 199.069 158.67 202.28H150.97C150.447 200.948 149.534 199.805 148.35 199C147.106 198.189 145.645 197.774 144.16 197.81C143.181 197.778 142.208 197.972 141.316 198.378C140.425 198.784 139.639 199.39 139.02 200.15C137.744 201.983 137.06 204.162 137.06 206.395C137.06 208.628 137.744 210.807 139.02 212.64C139.643 213.392 140.43 213.992 141.322 214.392C142.213 214.793 143.184 214.984 144.16 214.95C145.645 214.991 147.108 214.576 148.35 213.76C149.527 212.97 150.44 211.845 150.97 210.53H158.67C158.045 213.731 156.323 216.614 153.8 218.68C151.077 220.758 147.713 221.819 144.29 221.68C141.596 221.737 138.936 221.067 136.59 219.74C134.395 218.466 132.617 216.584 131.47 214.32C130.279 211.837 129.66 209.119 129.66 206.365C129.66 203.611 130.279 200.893 131.47 198.41C132.617 196.146 134.395 194.264 136.59 192.99C138.936 191.663 141.596 190.993 144.29 191.05C147.72 190.932 151.083 192.014 153.8 194.11Z" fill="white"/>
<path d="M181.03 221.46L174.7 212.1L169.25 221.46H160.92L170.53 205.98L160.62 191.39H169.25L175.42 200.45L180.74 191.39H189.03L179.55 206.53L189.67 221.46H181.03Z" fill="white"/>
</svg>
