<svg width="201" height="241" viewBox="0 0 201 241" fill="none" xmlns="http://www.w3.org/2000/svg">
<path opacity="0.3" d="M139.96 50.06C134.492 50.0547 129.249 47.8809 125.382 44.0153C121.514 40.1497 119.338 34.908 119.33 29.44V0.809998H27.2C20.063 0.809998 13.2185 3.64514 8.17188 8.69174C3.12527 13.7383 0.290039 20.583 0.290039 27.72V189.94C0.290039 197.077 3.12527 203.922 8.17188 208.968C13.2185 214.015 20.063 216.85 27.2 216.85H137.8C144.937 216.85 151.782 214.015 156.828 208.968C161.875 203.922 164.71 197.077 164.71 189.94V50.06H139.96Z" fill="#FF3E4C"/>
<path d="M164.71 50.06H139.96C134.492 50.0547 129.249 47.8809 125.382 44.0153C121.514 40.1497 119.338 34.908 119.33 29.44V0.809998L164.71 50.06Z" fill="#FF3E4C"/>
<path d="M130.88 151.64H27.6401C26.6804 151.59 25.7763 151.174 25.1145 150.477C24.4527 149.78 24.0835 148.856 24.0835 147.895C24.0835 146.934 24.4527 146.01 25.1145 145.313C25.7763 144.616 26.6804 144.2 27.6401 144.15H130.88C131.388 144.124 131.896 144.201 132.374 144.377C132.851 144.554 133.287 144.825 133.656 145.176C134.025 145.526 134.319 145.948 134.519 146.415C134.72 146.883 134.824 147.386 134.824 147.895C134.824 148.404 134.72 148.907 134.519 149.375C134.319 149.842 134.025 150.264 133.656 150.614C133.287 150.965 132.851 151.236 132.374 151.413C131.896 151.589 131.388 151.666 130.88 151.64Z" fill="#FF3E4C"/>
<path d="M130.88 109.41H27.6401C26.6804 109.36 25.7763 108.944 25.1145 108.247C24.4527 107.55 24.0835 106.626 24.0835 105.665C24.0835 104.704 24.4527 103.78 25.1145 103.083C25.7763 102.386 26.6804 101.97 27.6401 101.92H130.88C131.388 101.894 131.896 101.971 132.374 102.147C132.851 102.324 133.287 102.595 133.656 102.946C134.025 103.296 134.319 103.718 134.519 104.185C134.72 104.653 134.824 105.156 134.824 105.665C134.824 106.174 134.72 106.677 134.519 107.145C134.319 107.612 134.025 108.034 133.656 108.384C133.287 108.735 132.851 109.006 132.374 109.183C131.896 109.359 131.388 109.436 130.88 109.41Z" fill="#FF3E4C"/>
<path d="M130.88 130.53H27.6401C26.6804 130.48 25.7763 130.064 25.1145 129.367C24.4527 128.67 24.0835 127.746 24.0835 126.785C24.0835 125.824 24.4527 124.9 25.1145 124.203C25.7763 123.506 26.6804 123.09 27.6401 123.04H130.88C131.388 123.014 131.896 123.091 132.374 123.268C132.851 123.444 133.287 123.715 133.656 124.066C134.025 124.416 134.319 124.838 134.519 125.305C134.72 125.773 134.824 126.276 134.824 126.785C134.824 127.294 134.72 127.797 134.519 128.265C134.319 128.732 134.025 129.154 133.656 129.504C133.287 129.855 132.851 130.126 132.374 130.303C131.896 130.479 131.388 130.556 130.88 130.53Z" fill="#FF3E4C"/>
<path d="M90.1599 88.29H27.6401C26.6804 88.2404 25.7763 87.8242 25.1145 87.1273C24.4527 86.4304 24.0835 85.5061 24.0835 84.545C24.0835 83.584 24.4527 82.6596 25.1145 81.9627C25.7763 81.2658 26.6804 80.8496 27.6401 80.8H90.1599C91.1197 80.8496 92.024 81.2658 92.6858 81.9627C93.3476 82.6596 93.7166 83.584 93.7166 84.545C93.7166 85.5061 93.3476 86.4304 92.6858 87.1273C92.024 87.8242 91.1197 88.2404 90.1599 88.29Z" fill="#FF3E4C"/>
<path d="M90.1599 67.17H27.6401C26.6804 67.1204 25.7763 66.7042 25.1145 66.0073C24.4527 65.3104 24.0835 64.3861 24.0835 63.425C24.0835 62.464 24.4527 61.5396 25.1145 60.8427C25.7763 60.1458 26.6804 59.7296 27.6401 59.68H90.1599C91.1197 59.7296 92.024 60.1458 92.6858 60.8427C93.3476 61.5396 93.7166 62.464 93.7166 63.425C93.7166 64.3861 93.3476 65.3104 92.6858 66.0073C92.024 66.7042 91.1197 67.1204 90.1599 67.17Z" fill="#FF3E4C"/>
<path d="M184.23 171.42H59.1899C50.3202 171.42 43.1299 178.61 43.1299 187.48V224.76C43.1299 233.63 50.3202 240.82 59.1899 240.82H184.23C193.1 240.82 200.29 233.63 200.29 224.76V187.48C200.29 178.61 193.1 171.42 184.23 171.42Z" fill="#FF3E4C"/>
<path d="M84.1501 214.19V221.46H76.6201V214.19H84.1501Z" fill="white"/>
<path d="M95.21 210.91V221.46H87.9299V191.39H99.71C103.29 191.39 106.013 192.277 107.88 194.05C108.828 194.979 109.568 196.099 110.052 197.334C110.536 198.57 110.754 199.894 110.69 201.22C110.723 202.969 110.288 204.695 109.43 206.22C108.565 207.718 107.269 208.92 105.71 209.67C103.838 210.559 101.781 210.988 99.71 210.92L95.21 210.91ZM103.29 201.22C103.29 198.553 101.83 197.22 98.9099 197.22H95.21V205.05H98.9099C101.83 205.077 103.29 203.8 103.29 201.22Z" fill="white"/>
<path d="M139.42 214.21C138.164 216.484 136.27 218.341 133.97 219.55C131.389 220.873 128.519 221.53 125.62 221.46H114.26V191.39H125.62C128.524 191.319 131.401 191.961 134 193.26C136.287 194.448 138.173 196.284 139.42 198.54C140.663 200.965 141.311 203.65 141.311 206.375C141.311 209.1 140.663 211.785 139.42 214.21ZM131.59 212.7C133.113 210.941 133.951 208.692 133.951 206.365C133.951 204.038 133.113 201.789 131.59 200.03C129.772 198.433 127.395 197.621 124.98 197.77H121.53V214.95H125.03C127.427 215.086 129.781 214.278 131.59 212.7Z" fill="white"/>
<path d="M165.03 191.39V197.18H152.7V203.77H162.23V209.3H152.7V221.46H145.43V191.39H165.03Z" fill="white"/>
<path d="M129.05 59.68H111.37C108.288 59.68 105.79 62.1783 105.79 65.26V82.94C105.79 86.0218 108.288 88.52 111.37 88.52H129.05C132.132 88.52 134.63 86.0218 134.63 82.94V65.26C134.63 62.1783 132.132 59.68 129.05 59.68Z" fill="#FF3E4C"/>
</svg>
