<svg width="5367" height="1470" viewBox="0 0 5367 1470" fill="none" xmlns="http://www.w3.org/2000/svg">
<path d="M1619.4 350.182H1754.25V764.39C1754.25 810.897 1743.14 851.592 1720.93 886.472C1698.92 921.353 1668.09 948.552 1628.43 968.068C1588.78 987.377 1542.58 997.032 1489.84 997.032C1436.9 997.032 1390.6 987.377 1350.94 968.068C1311.29 948.552 1280.46 921.353 1258.45 886.472C1236.44 851.592 1225.44 810.897 1225.44 764.39V350.182H1360.29V752.867C1360.29 777.159 1365.58 798.752 1376.17 817.645C1386.97 836.539 1402.12 851.384 1421.64 862.18C1441.16 872.977 1463.89 878.375 1489.84 878.375C1516 878.375 1538.74 872.977 1558.05 862.18C1577.56 851.384 1592.62 836.539 1603.21 817.645C1614 798.752 1619.4 777.159 1619.4 752.867V350.182ZM1860.22 988V908.896L2094.42 618.95V615.524H1868.31V509.636H2254.18V595.904L2034.31 878.686V882.112H2262.28V988H1860.22ZM2366.22 988V350.182H2788.53V461.364H2501.07V613.344H2760.5V724.526H2501.07V988H2366.22ZM2876.74 988V509.636H3009.41V988H2876.74ZM2943.39 447.972C2923.66 447.972 2906.74 441.432 2892.62 428.352C2878.71 415.064 2871.76 399.181 2871.76 380.702C2871.76 362.432 2878.71 346.756 2892.62 333.676C2906.74 320.388 2923.66 313.744 2943.39 313.744C2963.11 313.744 2979.93 320.388 2993.84 333.676C3007.96 346.756 3015.02 362.432 3015.02 380.702C3015.02 399.181 3007.96 415.064 2993.84 428.352C2979.93 441.432 2963.11 447.972 2943.39 447.972ZM3248.36 711.446V988H3115.69V509.636H3242.13V594.035H3247.74C3258.33 566.214 3276.08 544.206 3300.99 528.011C3325.91 511.609 3356.12 503.408 3391.62 503.408C3424.84 503.408 3453.8 510.674 3478.51 525.208C3503.22 539.742 3522.42 560.504 3536.12 587.495C3549.83 614.278 3556.68 646.252 3556.68 683.417V988H3424.01V707.086C3424.22 677.811 3416.74 654.973 3401.59 638.57C3386.43 621.96 3365.56 613.656 3338.99 613.656C3321.13 613.656 3305.35 617.497 3291.65 625.179C3278.15 632.861 3267.56 644.072 3259.88 658.814C3252.41 673.347 3248.57 690.891 3248.36 711.446ZM3889.84 988H3663.74V350.182H3891.71C3955.86 350.182 4011.09 362.951 4057.39 388.488C4103.69 413.818 4139.3 450.256 4164.21 497.802C4189.33 545.348 4201.89 602.236 4201.89 668.468C4201.89 734.907 4189.33 792.004 4164.21 839.757C4139.3 887.51 4103.48 924.156 4056.77 949.694C4010.26 975.231 3954.62 988 3889.84 988ZM3798.59 872.458H3884.23C3924.09 872.458 3957.63 865.399 3984.82 851.28C4012.23 836.954 4032.79 814.842 4046.49 784.945C4060.4 754.839 4067.35 716.014 4067.35 668.468C4067.35 621.338 4060.4 582.823 4046.49 552.926C4032.79 523.028 4012.33 501.02 3985.14 486.902C3957.94 472.783 3924.41 465.724 3884.54 465.724H3798.59V872.458ZM4515.43 997.343C4467.05 997.343 4425.22 987.066 4389.92 966.511C4354.83 945.749 4327.74 916.889 4308.64 879.932C4289.54 842.768 4279.99 799.686 4279.99 750.687C4279.99 701.272 4289.54 658.087 4308.64 621.13C4327.74 583.965 4354.83 555.106 4389.92 534.551C4425.22 513.789 4467.05 503.408 4515.43 503.408C4563.81 503.408 4605.54 513.789 4640.63 534.551C4675.92 555.106 4703.12 583.965 4722.22 621.13C4741.33 658.087 4750.88 701.272 4750.88 750.687C4750.88 799.686 4741.33 842.768 4722.22 879.932C4703.12 916.889 4675.92 945.749 4640.63 966.511C4605.54 987.066 4563.81 997.343 4515.43 997.343ZM4516.05 894.57C4538.06 894.57 4556.44 888.341 4571.18 875.884C4585.92 863.219 4597.03 845.986 4604.5 824.185C4612.18 802.385 4616.02 777.574 4616.02 749.752C4616.02 721.931 4612.18 697.12 4604.5 675.32C4597.03 653.519 4585.92 636.286 4571.18 623.621C4556.44 610.956 4538.06 604.624 4516.05 604.624C4493.84 604.624 4475.15 610.956 4460 623.621C4445.05 636.286 4433.73 653.519 4426.05 675.32C4418.57 697.12 4414.84 721.931 4414.84 749.752C4414.84 777.574 4418.57 802.385 4426.05 824.185C4433.73 845.986 4445.05 863.219 4460 875.884C4475.15 888.341 4493.84 894.57 4516.05 894.57ZM5053.28 997.343C5004.28 997.343 4962.13 986.962 4926.84 966.2C4891.75 945.23 4864.76 916.162 4845.86 878.998C4827.18 841.833 4817.83 799.063 4817.83 750.687C4817.83 701.688 4827.28 658.71 4846.17 621.753C4865.28 584.588 4892.37 555.625 4927.46 534.863C4962.55 513.893 5004.28 503.408 5052.66 503.408C5094.39 503.408 5130.93 510.986 5162.28 526.142C5193.63 541.299 5218.44 562.58 5236.71 589.986C5254.98 617.393 5265.05 649.574 5266.92 686.531H5141.73C5138.2 662.655 5128.85 643.449 5113.7 628.916C5098.75 614.175 5079.13 606.804 5054.84 606.804C5034.28 606.804 5016.32 612.41 5000.96 623.621C4985.8 634.625 4973.97 650.716 4965.45 671.894C4956.94 693.071 4952.69 718.713 4952.69 748.818C4952.69 779.339 4956.84 805.292 4965.14 826.677C4973.66 848.062 4985.59 864.36 5000.96 875.572C5016.32 886.784 5034.28 892.39 5054.84 892.39C5069.99 892.39 5083.59 889.275 5095.63 883.047C5107.88 876.818 5117.95 867.786 5125.84 855.952C5133.94 843.91 5139.23 829.48 5141.73 812.662H5266.92C5264.85 849.204 5254.88 881.386 5237.03 909.207C5219.38 936.821 5194.98 958.414 5163.84 973.985C5132.69 989.557 5095.84 997.343 5053.28 997.343Z" fill="black"/>
<path d="M1371.53 1284V1128.36H1432.93C1444.73 1128.36 1454.79 1130.62 1463.1 1135.13C1471.41 1139.59 1477.74 1145.79 1482.1 1153.75C1486.51 1161.65 1488.71 1170.77 1488.71 1181.1C1488.71 1191.44 1486.48 1200.56 1482.02 1208.46C1477.56 1216.37 1471.1 1222.52 1462.64 1226.93C1454.23 1231.34 1444.05 1233.54 1432.09 1233.54H1392.96V1207.17H1426.77C1433.11 1207.17 1438.33 1206.08 1442.43 1203.9C1446.58 1201.67 1449.67 1198.61 1451.7 1194.71C1453.78 1190.75 1454.82 1186.22 1454.82 1181.1C1454.82 1175.94 1453.78 1171.43 1451.7 1167.58C1449.67 1163.68 1446.58 1160.66 1442.43 1158.53C1438.28 1156.35 1433.01 1155.27 1426.62 1155.27H1404.43V1284H1371.53ZM1539.63 1286.2C1532.18 1286.2 1525.54 1284.91 1519.72 1282.33C1513.89 1279.69 1509.28 1275.82 1505.88 1270.7C1502.54 1265.53 1500.87 1259.1 1500.87 1251.4C1500.87 1244.91 1502.06 1239.47 1504.44 1235.06C1506.82 1230.65 1510.06 1227.11 1514.17 1224.42C1518.27 1221.74 1522.93 1219.71 1528.15 1218.34C1533.42 1216.97 1538.94 1216.01 1544.72 1215.45C1551.51 1214.74 1556.98 1214.09 1561.13 1213.48C1565.29 1212.82 1568.3 1211.86 1570.18 1210.59C1572.05 1209.32 1572.99 1207.45 1572.99 1204.97V1204.51C1572.99 1199.7 1571.47 1195.97 1568.43 1193.34C1565.44 1190.7 1561.18 1189.39 1555.66 1189.39C1549.83 1189.39 1545.2 1190.68 1541.75 1193.26C1538.31 1195.8 1536.03 1198.99 1534.91 1202.84L1504.97 1200.41C1506.49 1193.31 1509.48 1187.18 1513.94 1182.02C1518.4 1176.8 1524.15 1172.79 1531.19 1170.01C1538.28 1167.17 1546.49 1165.75 1555.81 1165.75C1562.3 1165.75 1568.5 1166.51 1574.43 1168.03C1580.41 1169.55 1585.7 1171.91 1590.31 1175.1C1594.98 1178.29 1598.65 1182.4 1601.33 1187.41C1604.02 1192.38 1605.36 1198.33 1605.36 1205.27V1284H1574.66V1267.81H1573.75C1571.87 1271.46 1569.37 1274.68 1566.22 1277.46C1563.08 1280.2 1559.31 1282.35 1554.9 1283.92C1550.49 1285.44 1545.4 1286.2 1539.63 1286.2ZM1548.9 1263.86C1553.66 1263.86 1557.87 1262.92 1561.51 1261.05C1565.16 1259.12 1568.02 1256.54 1570.1 1253.3C1572.18 1250.06 1573.22 1246.38 1573.22 1242.28V1229.89C1572.2 1230.55 1570.81 1231.16 1569.04 1231.72C1567.31 1232.22 1565.36 1232.7 1563.18 1233.16C1561.01 1233.57 1558.83 1233.95 1556.65 1234.3C1554.47 1234.6 1552.49 1234.88 1550.72 1235.14C1546.92 1235.69 1543.6 1236.58 1540.77 1237.8C1537.93 1239.01 1535.73 1240.66 1534.15 1242.74C1532.58 1244.76 1531.8 1247.29 1531.8 1250.33C1531.8 1254.74 1533.39 1258.11 1536.59 1260.44C1539.83 1262.72 1543.93 1263.86 1548.9 1263.86ZM1646.28 1327.77C1642.18 1327.77 1638.33 1327.44 1634.73 1326.78C1631.19 1326.18 1628.25 1325.39 1625.92 1324.43L1633.21 1300.26C1637.01 1301.43 1640.43 1302.06 1643.47 1302.16C1646.56 1302.26 1649.22 1301.55 1651.45 1300.03C1653.73 1298.51 1655.58 1295.93 1657 1292.28L1658.9 1287.34L1617.03 1167.27H1651.07L1675.24 1252.99H1676.45L1700.85 1167.27H1735.12L1689.75 1296.62C1687.57 1302.9 1684.61 1308.37 1680.86 1313.03C1677.16 1317.74 1672.48 1321.36 1666.8 1323.9C1661.13 1326.48 1654.29 1327.77 1646.28 1327.77ZM1848.81 1200.56L1819.17 1202.38C1818.66 1199.85 1817.58 1197.57 1815.9 1195.54C1814.23 1193.47 1812.03 1191.82 1809.29 1190.6C1806.61 1189.34 1803.39 1188.7 1799.64 1188.7C1794.63 1188.7 1790.4 1189.77 1786.95 1191.89C1783.5 1193.97 1781.78 1196.76 1781.78 1200.25C1781.78 1203.04 1782.9 1205.4 1785.13 1207.32C1787.36 1209.25 1791.18 1210.79 1796.6 1211.96L1817.73 1216.21C1829.08 1218.54 1837.54 1222.29 1843.11 1227.46C1848.68 1232.63 1851.47 1239.42 1851.47 1247.83C1851.47 1255.48 1849.21 1262.19 1844.71 1267.97C1840.25 1273.74 1834.12 1278.25 1826.31 1281.49C1818.56 1284.68 1809.62 1286.28 1799.49 1286.28C1784.04 1286.28 1771.73 1283.06 1762.56 1276.63C1753.44 1270.14 1748.09 1261.33 1746.52 1250.18L1778.36 1248.51C1779.33 1253.22 1781.66 1256.82 1785.35 1259.3C1789.05 1261.73 1793.79 1262.95 1799.56 1262.95C1805.24 1262.95 1809.8 1261.86 1813.24 1259.68C1816.74 1257.45 1818.51 1254.59 1818.56 1251.09C1818.51 1248.16 1817.27 1245.75 1814.84 1243.88C1812.41 1241.95 1808.66 1240.48 1803.59 1239.47L1783.38 1235.44C1771.98 1233.16 1763.49 1229.21 1757.92 1223.58C1752.4 1217.96 1749.64 1210.79 1749.64 1202.08C1749.64 1194.58 1751.66 1188.12 1755.72 1182.7C1759.82 1177.28 1765.57 1173.1 1772.97 1170.16C1780.41 1167.22 1789.13 1165.75 1799.11 1165.75C1813.85 1165.75 1825.45 1168.87 1833.91 1175.1C1842.43 1181.33 1847.39 1189.82 1848.81 1200.56ZM1904.23 1128.36V1284H1871.85V1128.36H1904.23ZM1930.16 1284V1167.27H1962.53V1284H1930.16ZM1946.42 1152.23C1941.61 1152.23 1937.48 1150.63 1934.04 1147.44C1930.64 1144.2 1928.95 1140.32 1928.95 1135.81C1928.95 1131.35 1930.64 1127.53 1934.04 1124.34C1937.48 1121.09 1941.61 1119.47 1946.42 1119.47C1951.24 1119.47 1955.34 1121.09 1958.74 1124.34C1962.18 1127.53 1963.9 1131.35 1963.9 1135.81C1963.9 1140.32 1962.18 1144.2 1958.74 1147.44C1955.34 1150.63 1951.24 1152.23 1946.42 1152.23ZM1988.47 1327.77V1167.27H2020.39V1186.88H2021.83C2023.25 1183.74 2025.3 1180.55 2027.98 1177.3C2030.72 1174.01 2034.27 1171.28 2038.62 1169.1C2043.03 1166.87 2048.5 1165.75 2055.04 1165.75C2063.55 1165.75 2071.4 1167.98 2078.6 1172.44C2085.79 1176.85 2091.54 1183.51 2095.85 1192.43C2100.15 1201.29 2102.31 1212.41 2102.31 1225.79C2102.31 1238.81 2100.2 1249.8 2096 1258.77C2091.85 1267.69 2086.17 1274.45 2078.98 1279.06C2071.83 1283.62 2063.83 1285.9 2054.96 1285.9C2048.68 1285.9 2043.34 1284.86 2038.93 1282.78C2034.57 1280.71 2031 1278.1 2028.21 1274.96C2025.43 1271.76 2023.3 1268.55 2021.83 1265.31H2020.84V1327.77H1988.47ZM2020.16 1225.64C2020.16 1232.58 2021.12 1238.63 2023.05 1243.8C2024.97 1248.97 2027.76 1252.99 2031.4 1255.88C2035.05 1258.72 2039.49 1260.14 2044.7 1260.14C2049.97 1260.14 2054.43 1258.69 2058.08 1255.81C2061.73 1252.87 2064.49 1248.81 2066.36 1243.65C2068.29 1238.43 2069.25 1232.43 2069.25 1225.64C2069.25 1218.9 2068.31 1212.97 2066.44 1207.85C2064.56 1202.74 2061.8 1198.73 2058.15 1195.85C2054.51 1192.96 2050.02 1191.51 2044.7 1191.51C2039.43 1191.51 2034.98 1192.91 2031.33 1195.69C2027.73 1198.48 2024.97 1202.43 2023.05 1207.55C2021.12 1212.67 2020.16 1218.7 2020.16 1225.64ZM2168.1 1155.49V1128.36H2295.92V1155.49H2248.27V1284H2215.75V1155.49H2168.1ZM2304.24 1284V1167.27H2335.63V1187.64H2336.84C2338.97 1180.39 2342.54 1174.92 2347.56 1171.22C2352.58 1167.48 2358.35 1165.6 2364.89 1165.6C2366.51 1165.6 2368.26 1165.7 2370.13 1165.9C2372 1166.11 2373.65 1166.39 2375.07 1166.74V1195.47C2373.55 1195.01 2371.45 1194.61 2368.76 1194.25C2366.08 1193.9 2363.62 1193.72 2361.39 1193.72C2356.63 1193.72 2352.37 1194.76 2348.62 1196.83C2344.93 1198.86 2341.99 1201.7 2339.81 1205.35C2337.68 1208.99 2336.62 1213.2 2336.62 1217.96V1284H2304.24ZM2421.75 1286.2C2414.3 1286.2 2407.67 1284.91 2401.84 1282.33C2396.01 1279.69 2391.4 1275.82 2388.01 1270.7C2384.66 1265.53 2382.99 1259.1 2382.99 1251.4C2382.99 1244.91 2384.18 1239.47 2386.56 1235.06C2388.95 1230.65 2392.19 1227.11 2396.29 1224.42C2400.4 1221.74 2405.06 1219.71 2410.27 1218.34C2415.54 1216.97 2421.07 1216.01 2426.84 1215.45C2433.63 1214.74 2439.1 1214.09 2443.26 1213.48C2447.41 1212.82 2450.42 1211.86 2452.3 1210.59C2454.17 1209.32 2455.11 1207.45 2455.11 1204.97V1204.51C2455.11 1199.7 2453.59 1195.97 2450.55 1193.34C2447.56 1190.7 2443.31 1189.39 2437.78 1189.39C2431.96 1189.39 2427.32 1190.68 2423.88 1193.26C2420.43 1195.8 2418.15 1198.99 2417.04 1202.84L2387.1 1200.41C2388.62 1193.31 2391.61 1187.18 2396.06 1182.02C2400.52 1176.8 2406.27 1172.79 2413.31 1170.01C2420.41 1167.17 2428.61 1165.75 2437.94 1165.75C2444.42 1165.75 2450.63 1166.51 2456.55 1168.03C2462.53 1169.55 2467.83 1171.91 2472.44 1175.1C2477.1 1178.29 2480.77 1182.4 2483.46 1187.41C2486.14 1192.38 2487.48 1198.33 2487.48 1205.27V1284H2456.78V1267.81H2455.87C2454 1271.46 2451.49 1274.68 2448.35 1277.46C2445.21 1280.2 2441.43 1282.35 2437.02 1283.92C2432.62 1285.44 2427.53 1286.2 2421.75 1286.2ZM2431.02 1263.86C2435.78 1263.86 2439.99 1262.92 2443.64 1261.05C2447.28 1259.12 2450.15 1256.54 2452.22 1253.3C2454.3 1250.06 2455.34 1246.38 2455.34 1242.28V1229.89C2454.33 1230.55 2452.93 1231.16 2451.16 1231.72C2449.44 1232.22 2447.49 1232.7 2445.31 1233.16C2443.13 1233.57 2440.95 1233.95 2438.77 1234.3C2436.59 1234.6 2434.62 1234.88 2432.84 1235.14C2429.04 1235.69 2425.73 1236.58 2422.89 1237.8C2420.05 1239.01 2417.85 1240.66 2416.28 1242.74C2414.71 1244.76 2413.92 1247.29 2413.92 1250.33C2413.92 1254.74 2415.52 1258.11 2418.71 1260.44C2421.95 1262.72 2426.06 1263.86 2431.02 1263.86ZM2544.97 1216.52V1284H2512.6V1167.27H2543.45V1187.87H2544.82C2547.41 1181.08 2551.74 1175.71 2557.82 1171.76C2563.9 1167.75 2571.27 1165.75 2579.93 1165.75C2588.04 1165.75 2595.11 1167.53 2601.13 1171.07C2607.16 1174.62 2611.85 1179.69 2615.19 1186.27C2618.54 1192.81 2620.21 1200.61 2620.21 1209.68V1284H2587.84V1215.45C2587.89 1208.31 2586.06 1202.74 2582.36 1198.73C2578.67 1194.68 2573.57 1192.65 2567.09 1192.65C2562.73 1192.65 2558.88 1193.59 2555.54 1195.47C2552.24 1197.34 2549.66 1200.08 2547.79 1203.67C2545.96 1207.22 2545.02 1211.5 2544.97 1216.52ZM2742.84 1200.56L2713.21 1202.38C2712.7 1199.85 2711.61 1197.57 2709.94 1195.54C2708.27 1193.47 2706.06 1191.82 2703.33 1190.6C2700.64 1189.34 2697.43 1188.7 2693.68 1188.7C2688.66 1188.7 2684.43 1189.77 2680.99 1191.89C2677.54 1193.97 2675.82 1196.76 2675.82 1200.25C2675.82 1203.04 2676.93 1205.4 2679.16 1207.32C2681.39 1209.25 2685.22 1210.79 2690.64 1211.96L2711.76 1216.21C2723.11 1218.54 2731.57 1222.29 2737.14 1227.46C2742.72 1232.63 2745.5 1239.42 2745.5 1247.83C2745.5 1255.48 2743.25 1262.19 2738.74 1267.97C2734.28 1273.74 2728.15 1278.25 2720.35 1281.49C2712.6 1284.68 2703.66 1286.28 2693.52 1286.28C2678.07 1286.28 2665.76 1283.06 2656.59 1276.63C2647.47 1270.14 2642.13 1261.33 2640.56 1250.18L2672.4 1248.51C2673.36 1253.22 2675.69 1256.82 2679.39 1259.3C2683.09 1261.73 2687.82 1262.95 2693.6 1262.95C2699.27 1262.95 2703.83 1261.86 2707.28 1259.68C2710.77 1257.45 2712.55 1254.59 2712.6 1251.09C2712.55 1248.16 2711.31 1245.75 2708.88 1243.88C2706.44 1241.95 2702.69 1240.48 2697.63 1239.47L2677.41 1235.44C2666.01 1233.16 2657.53 1229.21 2651.96 1223.58C2646.43 1217.96 2643.67 1210.79 2643.67 1202.08C2643.67 1194.58 2645.7 1188.12 2649.75 1182.7C2653.86 1177.28 2659.61 1173.1 2667 1170.16C2674.45 1167.22 2683.16 1165.75 2693.14 1165.75C2707.89 1165.75 2719.49 1168.87 2727.95 1175.1C2736.46 1181.33 2741.43 1189.82 2742.84 1200.56ZM2798.26 1128.36V1284H2765.89V1128.36H2798.26ZM2857.48 1286.2C2850.03 1286.2 2843.4 1284.91 2837.57 1282.33C2831.75 1279.69 2827.13 1275.82 2823.74 1270.7C2820.4 1265.53 2818.72 1259.1 2818.72 1251.4C2818.72 1244.91 2819.92 1239.47 2822.3 1235.06C2824.68 1230.65 2827.92 1227.11 2832.02 1224.42C2836.13 1221.74 2840.79 1219.71 2846.01 1218.34C2851.28 1216.97 2856.8 1216.01 2862.57 1215.45C2869.36 1214.74 2874.83 1214.09 2878.99 1213.48C2883.14 1212.82 2886.16 1211.86 2888.03 1210.59C2889.91 1209.32 2890.84 1207.45 2890.84 1204.97V1204.51C2890.84 1199.7 2889.32 1195.97 2886.28 1193.34C2883.29 1190.7 2879.04 1189.39 2873.52 1189.39C2867.69 1189.39 2863.05 1190.68 2859.61 1193.26C2856.16 1195.8 2853.88 1198.99 2852.77 1202.84L2822.83 1200.41C2824.35 1193.31 2827.34 1187.18 2831.8 1182.02C2836.25 1176.8 2842 1172.79 2849.05 1170.01C2856.14 1167.17 2864.35 1165.75 2873.67 1165.75C2880.15 1165.75 2886.36 1166.51 2892.29 1168.03C2898.27 1169.55 2903.56 1171.91 2908.17 1175.1C2912.83 1178.29 2916.5 1182.4 2919.19 1187.41C2921.87 1192.38 2923.22 1198.33 2923.22 1205.27V1284H2892.52V1267.81H2891.6C2889.73 1271.46 2887.22 1274.68 2884.08 1277.46C2880.94 1280.2 2877.16 1282.35 2872.76 1283.92C2868.35 1285.44 2863.26 1286.2 2857.48 1286.2ZM2866.75 1263.86C2871.52 1263.86 2875.72 1262.92 2879.37 1261.05C2883.02 1259.12 2885.88 1256.54 2887.96 1253.3C2890.03 1250.06 2891.07 1246.38 2891.07 1242.28V1229.89C2890.06 1230.55 2888.66 1231.16 2886.89 1231.72C2885.17 1232.22 2883.22 1232.7 2881.04 1233.16C2878.86 1233.57 2876.68 1233.95 2874.5 1234.3C2872.33 1234.6 2870.35 1234.88 2868.58 1235.14C2864.78 1235.69 2861.46 1236.58 2858.62 1237.8C2855.78 1239.01 2853.58 1240.66 2852.01 1242.74C2850.44 1244.76 2849.65 1247.29 2849.65 1250.33C2849.65 1254.74 2851.25 1258.11 2854.44 1260.44C2857.68 1262.72 2861.79 1263.86 2866.75 1263.86ZM3010.42 1167.27V1191.59H2940.13V1167.27H3010.42ZM2956.08 1139.31H2988.46V1248.13C2988.46 1251.12 2988.91 1253.45 2989.83 1255.12C2990.74 1256.74 2992 1257.88 2993.63 1258.54C2995.3 1259.2 2997.22 1259.53 2999.4 1259.53C3000.92 1259.53 3002.44 1259.4 3003.96 1259.15C3005.48 1258.85 3006.65 1258.62 3007.46 1258.47L3012.55 1282.56C3010.93 1283.06 3008.65 1283.65 3005.71 1284.3C3002.77 1285.01 2999.2 1285.44 2994.99 1285.6C2987.19 1285.9 2980.35 1284.86 2974.48 1282.48C2968.65 1280.1 2964.11 1276.4 2960.87 1271.38C2957.63 1266.37 2956.03 1260.04 2956.08 1252.39V1139.31ZM3031.51 1284V1167.27H3063.88V1284H3031.51ZM3047.77 1152.23C3042.96 1152.23 3038.83 1150.63 3035.38 1147.44C3031.99 1144.2 3030.29 1140.32 3030.29 1135.81C3030.29 1131.35 3031.99 1127.53 3035.38 1124.34C3038.83 1121.09 3042.96 1119.47 3047.77 1119.47C3052.58 1119.47 3056.69 1121.09 3060.08 1124.34C3063.53 1127.53 3065.25 1131.35 3065.25 1135.81C3065.25 1140.32 3063.53 1144.2 3060.08 1147.44C3056.69 1150.63 3052.58 1152.23 3047.77 1152.23ZM3142.56 1286.28C3130.75 1286.28 3120.54 1283.77 3111.93 1278.76C3103.37 1273.69 3096.76 1266.65 3092.1 1257.63C3087.43 1248.56 3085.1 1238.05 3085.1 1226.09C3085.1 1214.03 3087.43 1203.5 3092.1 1194.48C3096.76 1185.41 3103.37 1178.37 3111.93 1173.35C3120.54 1168.29 3130.75 1165.75 3142.56 1165.75C3154.36 1165.75 3164.54 1168.29 3173.11 1173.35C3181.72 1178.37 3188.35 1185.41 3193.02 1194.48C3197.68 1203.5 3200.01 1214.03 3200.01 1226.09C3200.01 1238.05 3197.68 1248.56 3193.02 1257.63C3188.35 1266.65 3181.72 1273.69 3173.11 1278.76C3164.54 1283.77 3154.36 1286.28 3142.56 1286.28ZM3142.71 1261.2C3148.08 1261.2 3152.56 1259.68 3156.16 1256.64C3159.76 1253.55 3162.47 1249.35 3164.29 1244.03C3166.16 1238.71 3167.1 1232.65 3167.1 1225.86C3167.1 1219.08 3166.16 1213.02 3164.29 1207.7C3162.47 1202.38 3159.76 1198.18 3156.16 1195.09C3152.56 1192 3148.08 1190.45 3142.71 1190.45C3137.29 1190.45 3132.73 1192 3129.03 1195.09C3125.38 1198.18 3122.62 1202.38 3120.75 1207.7C3118.92 1213.02 3118.01 1219.08 3118.01 1225.86C3118.01 1232.65 3118.92 1238.71 3120.75 1244.03C3122.62 1249.35 3125.38 1253.55 3129.03 1256.64C3132.73 1259.68 3137.29 1261.2 3142.71 1261.2ZM3253.43 1216.52V1284H3221.06V1167.27H3251.91V1187.87H3253.28C3255.86 1181.08 3260.19 1175.71 3266.27 1171.76C3272.35 1167.75 3279.73 1165.75 3288.39 1165.75C3296.49 1165.75 3303.56 1167.53 3309.59 1171.07C3315.62 1174.62 3320.31 1179.69 3323.65 1186.27C3326.99 1192.81 3328.67 1200.61 3328.67 1209.68V1284H3296.29V1215.45C3296.34 1208.31 3294.52 1202.74 3290.82 1198.73C3287.12 1194.68 3282.03 1192.65 3275.55 1192.65C3271.19 1192.65 3267.34 1193.59 3263.99 1195.47C3260.7 1197.34 3258.12 1200.08 3256.24 1203.67C3254.42 1207.22 3253.48 1211.5 3253.43 1216.52Z" fill="black"/>
<path d="M110.656 200.942H270.795C279.221 200.942 286.088 194.089 286.088 185.616C286.088 177.143 279.25 170.29 270.795 170.29H110.656C102.202 170.29 95.3633 177.143 95.3633 185.616C95.3633 194.089 102.202 200.942 110.656 200.942Z" fill="black"/>
<path d="M338.228 232.957H110.658C102.203 232.957 95.3633 239.81 95.3633 248.283C95.3633 256.755 102.203 263.609 110.658 263.609H338.228C346.655 263.609 353.523 256.755 353.523 248.283C353.523 239.81 346.683 232.957 338.228 232.957Z" fill="black"/>
<path d="M216.961 295.623H110.679C102.212 295.623 95.3633 302.477 95.3633 310.949C95.3633 319.422 102.212 326.275 110.679 326.275H216.961C225.399 326.275 232.276 319.422 232.276 310.949C232.276 302.477 225.428 295.623 216.961 295.623Z" fill="black"/>
<path d="M1017.73 1325.94V1438.68H792.097H788.286H30.6074V503.884H788.286L792.097 503.855H1017.73V1090.71L1048.3 1106.13V192.844C1048.3 192.151 1048.19 191.458 1048.1 190.736C1048.07 190.534 1048.1 190.332 1048.04 190.101C1047.81 188.773 1047.35 187.473 1046.77 186.26C1046.63 185.971 1046.49 185.712 1046.34 185.423C1045.68 184.181 1044.87 183.026 1043.86 181.986L866.363 4.47603C865.468 3.55194 864.4 2.83001 863.332 2.1947C863.014 1.99256 862.696 1.84817 862.35 1.6749C861.455 1.21286 860.502 0.866331 859.52 0.606433C859.26 0.548678 859.029 0.433164 858.769 0.375408C857.701 0.144388 856.632 0 855.535 0H15.3037C6.87224 0 0 6.84399 0 15.3051V1453.96C0 1462.39 6.84336 1469.26 15.3037 1469.26H1033C1041.46 1469.26 1048.3 1462.42 1048.3 1453.96V1341.19C1047.5 1340.81 1046.63 1340.52 1045.82 1340.12L1017.73 1325.94ZM867.114 48.572L917.241 98.7035L991.248 172.717L854.698 157.209L867.114 48.572ZM30.6074 30.6391H838.384L822.56 168.934C822.098 172.977 823.253 177.019 825.794 180.196C828.335 183.372 832.002 185.423 836.045 185.885L1017.73 206.532V456.583H30.6074V30.6391Z" fill="black"/>
<path d="M1129.97 1173.05L876.947 1045.49C879.949 1033.8 882.375 1021.91 884.222 1009.81C898.687 914.69 875.272 819.623 818.223 742.133C761.173 664.642 677.36 613.992 582.2 599.504C487.098 585.045 391.967 608.451 314.419 665.479C236.9 722.508 186.23 806.29 171.737 901.414C157.273 996.538 180.687 1091.6 237.737 1169.1C294.786 1246.59 378.6 1297.24 473.759 1311.72C492.295 1314.52 510.744 1315.94 529.077 1315.94C566.783 1315.94 603.94 1309.99 640.116 1298.1C676.32 1286.21 710.446 1268.61 741.541 1245.72C763.598 1229.5 783.404 1211.03 800.9 1190.83L1055.95 1319.43C1067.38 1325.2 1080.17 1328.26 1092.9 1328.26C1124.06 1328.26 1152.12 1311 1166.18 1283.24C1186.59 1242.92 1170.37 1193.48 1129.97 1173.05ZM723.409 1221.1C694.913 1242.05 663.675 1258.19 630.559 1269.07C581.42 1285.2 530.203 1289.39 478.35 1281.48C391.274 1268.23 314.563 1221.88 262.364 1150.97C210.165 1080.06 188.713 993.075 201.965 906.032C215.217 818.988 261.584 742.306 332.521 690.126C389.802 648.019 457.534 625.941 527.287 625.941C543.974 625.941 560.777 627.21 577.581 629.779C664.656 643.026 741.367 689.376 793.567 760.286C845.766 831.196 867.217 918.182 853.965 1005.23C840.713 1092.24 794.346 1168.92 723.409 1221.1ZM1138.87 1269.44C1130.06 1286.87 1112.42 1297.67 1092.9 1297.67C1084.82 1297.67 1077.02 1295.79 1069.72 1292.1L820.301 1166.32C840.454 1138.45 856.477 1107.82 867.91 1075.13L1116.17 1200.29C1141.49 1213.14 1151.69 1244.13 1138.87 1269.44Z" fill="black"/>
<path d="M641.483 951.725C662.617 924.786 667.712 888.671 654.835 856.987C641.986 825.307 613.126 802.857 579.146 798.116V741.783C579.146 741.783 566.801 741.783 551.601 741.783C536.373 741.783 524.028 741.783 524.028 741.783V796.694H496.454V741.783C496.454 741.783 484.137 741.783 468.909 741.783C453.681 741.783 441.336 741.783 441.336 741.783V796.694H386.217C386.217 796.694 386.217 836.462 386.217 851.633H413.79V1071.31V1071.28C398.562 1071.28 386.217 1071.31 386.217 1071.31C386.217 1086.48 386.217 1126.22 386.217 1126.22L441.363 1126.22V1153.69V1181.13C441.363 1181.13 453.681 1181.13 468.909 1181.13C484.137 1181.13 496.454 1181.13 496.454 1181.13V1126.22H524.027V1153.69V1181.13C524.027 1181.13 536.373 1181.13 551.601 1181.13C566.801 1181.13 579.146 1181.13 579.146 1181.13V1126.22C605.767 1127.56 631.801 1118.1 651.281 1099.98C670.764 1081.88 682.017 1056.64 682.521 1030.12C682.465 998.884 667.153 969.653 641.483 951.725ZM565.371 851.633C588.213 851.633 606.716 870.066 606.716 892.795C606.716 915.551 588.213 933.984 565.371 933.984H468.907V851.633L565.371 851.633ZM586.029 1071.31L468.905 1071.28V988.928H586.058H586.03C608.872 988.928 627.375 1007.36 627.375 1030.12C627.375 1052.85 608.872 1071.28 586.03 1071.28L586.029 1071.31Z" fill="black"/>
</svg>
