<svg width="1725" height="2157" viewBox="0 0 1725 2157" fill="none" xmlns="http://www.w3.org/2000/svg">
<path d="M162.451 295H397.549C409.918 295 420 284.939 420 272.5C420 260.061 409.961 250 397.549 250H162.451C150.039 250 140 260.061 140 272.5C140 284.939 150.039 295 162.451 295Z" fill="black"/>
<path d="M496.546 342H162.454C150.041 342 140 352.061 140 364.5C140 376.939 150.041 387 162.454 387H496.546C508.917 387 519 376.939 519 364.5C519 352.061 508.959 342 496.546 342Z" fill="black"/>
<path d="M318.516 434H162.484C150.054 434 140 444.061 140 456.5C140 468.939 150.054 479 162.484 479H318.516C330.903 479 341 468.939 341 456.5C341 444.061 330.946 434 318.516 434Z" fill="black"/>
<path d="M1494.11 1946.6V2112.1H1162.87H1157.27H44.9343V739.745H1157.27L1162.87 739.703H1494.11V1601.25L1539 1623.89V283.112C1539 282.094 1538.83 281.077 1538.7 280.017C1538.66 279.72 1538.7 279.423 1538.62 279.084C1538.28 277.134 1537.6 275.226 1536.75 273.446C1536.54 273.022 1536.33 272.64 1536.12 272.216C1535.14 270.393 1533.96 268.698 1532.47 267.171L1271.9 6.57119C1270.58 5.21456 1269.01 4.15469 1267.44 3.22201C1266.98 2.92524 1266.51 2.71326 1266 2.4589C1264.69 1.78058 1263.29 1.27185 1261.85 0.890295C1261.47 0.805506 1261.13 0.635921 1260.75 0.551132C1259.18 0.211974 1257.61 0 1256 0H22.4672C10.089 0 0 10.0476 0 22.4692V2134.53C0 2146.91 10.0466 2157 22.4672 2157H1516.53C1528.95 2157 1539 2146.95 1539 2134.53V1968.98C1537.81 1968.43 1536.54 1968 1535.35 1967.41L1494.11 1946.6ZM1273 71.3079L1346.59 144.905L1455.24 253.563L1254.77 230.797L1273 71.3079ZM44.9343 44.9808H1230.82L1207.59 248.009C1206.91 253.944 1208.61 259.879 1212.34 264.543C1216.07 269.206 1221.45 272.216 1227.38 272.895L1494.11 303.207V670.303H44.9343V44.9808Z" fill="black"/>
<path d="M1658.9 1722.14L1287.43 1534.86C1291.84 1517.7 1295.4 1500.25 1298.11 1482.49C1319.35 1342.84 1284.98 1203.28 1201.22 1089.51C1117.47 975.752 994.423 901.393 854.72 880.123C715.102 858.896 575.442 893.258 461.595 976.98C347.79 1060.7 273.403 1183.7 252.126 1323.35C230.891 1463 265.265 1602.57 349.019 1716.33C432.773 1830.09 555.818 1904.45 695.52 1925.72C722.732 1929.83 749.816 1931.91 776.731 1931.91C832.086 1931.91 886.637 1923.18 939.746 1905.72C992.897 1888.27 1043 1862.42 1088.65 1828.82C1121.03 1805.01 1150.1 1777.89 1175.79 1748.24L1550.22 1937.03C1567.01 1945.51 1585.79 1950 1604.48 1950C1650.21 1950 1691.41 1924.66 1712.05 1883.9C1742.02 1824.71 1718.2 1752.13 1658.9 1722.14ZM1062.03 1792.68C1020.19 1823.44 974.332 1847.13 925.716 1863.1C853.576 1886.78 778.384 1892.93 702.26 1881.32C574.425 1861.87 461.807 1793.83 385.174 1689.72C308.541 1585.62 277.048 1457.92 296.503 1330.13C315.958 1202.34 384.029 1089.77 488.171 1013.16C572.263 951.347 671.7 918.934 774.103 918.934C798.602 918.934 823.27 920.798 847.939 924.569C975.773 944.017 1088.39 1012.06 1165.02 1116.16C1241.66 1220.27 1273.15 1347.97 1253.69 1475.76C1234.24 1603.5 1166.17 1716.08 1062.03 1792.68ZM1671.95 1863.65C1659.03 1889.24 1633.13 1905.09 1604.48 1905.09C1592.61 1905.09 1581.17 1902.33 1570.44 1896.91L1204.27 1712.26C1233.86 1671.33 1257.38 1626.38 1274.17 1578.38L1638.64 1762.13C1675.81 1780.99 1690.77 1826.49 1671.95 1863.65Z" fill="black"/>
<path d="M941.752 1397.21C972.779 1357.66 980.259 1304.64 961.355 1258.13C942.492 1211.62 900.122 1178.66 850.237 1171.7V1089C850.237 1089 832.113 1089 809.798 1089C787.442 1089 769.318 1089 769.318 1089V1169.61H728.838V1089C728.838 1089 710.755 1089 688.399 1089C666.043 1089 647.919 1089 647.919 1089V1169.61H567C567 1169.61 567 1228 567 1250.27H607.48V1572.77V1572.73C585.124 1572.73 567 1572.77 567 1572.77C567 1595.04 567 1653.39 567 1653.39L647.96 1653.39V1693.71V1734C647.96 1734 666.043 1734 688.399 1734C710.755 1734 728.838 1734 728.838 1734V1653.39H769.318V1693.71V1734C769.318 1734 787.442 1734 809.798 1734C832.113 1734 850.237 1734 850.237 1734V1653.39C889.318 1655.35 927.539 1641.47 956.137 1614.86C984.74 1588.29 1001.26 1551.24 1002 1512.3C1001.92 1466.45 979.438 1423.53 941.752 1397.21ZM830.013 1250.27C863.547 1250.27 890.711 1277.33 890.711 1310.7C890.711 1344.11 863.547 1371.17 830.013 1371.17H688.396V1250.27L830.013 1250.27ZM860.342 1572.77L688.394 1572.73V1451.83H860.384H860.343C893.877 1451.83 921.041 1478.89 921.041 1512.3C921.041 1545.67 893.877 1572.73 860.343 1572.73L860.342 1572.77Z" fill="black"/>
</svg>
